<svg width="284" height="280" viewBox="0 0 284 280" fill="none" xmlns="http://www.w3.org/2000/svg">
<path d="M108 90.6667C112.521 90.6667 116.94 89.4155 120.699 87.0714C124.458 84.7272 127.387 81.3954 129.117 77.4973C130.847 73.5991 131.3 69.3097 130.418 65.1714C129.536 61.0332 127.359 57.2319 124.162 54.2484C120.966 51.2649 116.893 49.2331 112.459 48.4099C108.025 47.5868 103.43 48.0092 99.2529 49.6239C95.0764 51.2386 91.5066 53.9729 88.995 57.4812C86.4834 60.9894 85.1429 65.114 85.1429 69.3333C85.1429 74.9913 87.551 80.4175 91.8376 84.4183C96.1241 88.4191 101.938 90.6667 108 90.6667ZM142.286 144C143.801 144 145.255 143.438 146.326 142.438C147.398 141.438 148 140.081 148 138.667C148 128.765 143.786 119.269 136.284 112.268C128.783 105.267 118.609 101.333 108 101.333C97.3913 101.333 87.2172 105.267 79.7157 112.268C72.2143 119.269 68 128.765 68 138.667C68 140.081 68.602 141.438 69.6737 142.438C70.7453 143.438 72.1988 144 73.7143 144H142.286Z" fill="white"/>
<g opacity="0.8" filter="url(#filter0_d_129_9)">
<ellipse cx="108" cy="102.5" rx="104" ry="102.5" fill="#EDF0F7"/>
</g>
<defs>
<filter id="filter0_d_129_9" x="0" y="0" width="216" height="213" filterUnits="userSpaceOnUse" color-interpolation-filters="sRGB">
<feFlood flood-opacity="0" result="BackgroundImageFix"/>
<feColorMatrix in="SourceAlpha" type="matrix" values="0 0 0 0 0 0 0 0 0 0 0 0 0 0 0 0 0 0 127 0" result="hardAlpha"/>
<feOffset dy="4"/>
<feGaussianBlur stdDeviation="2"/>
<feComposite in2="hardAlpha" operator="out"/>
<feColorMatrix type="matrix" values="0 0 0 0 0 0 0 0 0 0 0 0 0 0 0 0 0 0 0.25 0"/>
<feBlend mode="normal" in2="BackgroundImageFix" result="effect1_dropShadow_129_9"/>
<feBlend mode="normal" in="SourceGraphic" in2="effect1_dropShadow_129_9" result="shape"/>
</filter>
</defs>
</svg>
